<svg width="200" height="100" viewBox="0 0 200 100" fill="none" xmlns="http://www.w3.org/2000/svg"><path d="M110.957 8.33609L96.9424 0.25148C96.3833 -0.0838266 95.6751 -0.0838266 95.116 0.25148L81.1012 8.33609C80.5421 8.67139 80.1694 9.26749 80.1694 9.9381V21.7856C80.1694 22.4562 80.5048 23.0523 81.1012 23.3876L95.116 31.4722C95.4142 31.6213 95.7123 31.733 96.0478 31.733C96.3833 31.733 96.6815 31.6585 96.9796 31.4722L110.994 23.3876C111.554 23.0523 111.926 22.4562 111.926 21.7856V9.9381C111.889 9.26749 111.516 8.67139 110.957 8.33609ZM108.646 18.8424L103.465 15.8619L108.646 12.8814V18.8424ZM96.0105 3.45551L107.23 9.9381L96.0105 16.4207L84.7913 9.9381L96.0105 3.45551ZM83.4122 12.8441L88.5931 15.8246L83.4122 18.8051V12.8441ZM96.0105 28.2309L84.7913 21.7483L91.7987 17.6874L95.0787 19.5875C95.3769 19.7365 95.6751 19.8483 96.0105 19.8483C96.346 19.8483 96.6442 19.7738 96.9424 19.5875L100.222 17.6874L107.23 21.7483L96.0105 28.2309Z" stroke="#E30613" fill="#fff"></path></svg>