<svg width="20" height="20" viewBox="0 0 20 20" fill="none" xmlns="http://www.w3.org/2000/svg">
<mask id="mask0_464_27" style="mask-type:luminance" maskUnits="userSpaceOnUse" x="0" y="0" width="19" height="19">
<path d="M8.7513 15.8332C12.6634 15.8332 15.8346 12.6619 15.8346 8.74984C15.8346 4.83775 12.6634 1.6665 8.7513 1.6665C4.83922 1.6665 1.66797 4.83775 1.66797 8.74984C1.66797 12.6619 4.83922 15.8332 8.7513 15.8332Z" fill="#1A1A1A" stroke="white" stroke-width="2" stroke-linejoin="round"/>
<path d="M11.1087 5.97625C10.7995 5.66627 10.4321 5.42044 10.0276 5.2529C9.62307 5.08536 9.18944 4.99942 8.75161 5C8.31378 4.99942 7.88016 5.08536 7.47565 5.2529C7.07114 5.42044 6.70373 5.66627 6.39453 5.97625M13.8441 13.8425L17.3795 17.3779L13.8441 13.8425Z" fill="#1A1A1A"/>
<path d="M11.1087 5.97625C10.7995 5.66627 10.4321 5.42044 10.0276 5.2529C9.62307 5.08536 9.18944 4.99942 8.75161 5C8.31378 4.99942 7.88016 5.08536 7.47565 5.2529C7.07114 5.42044 6.70373 5.66627 6.39453 5.97625M13.8441 13.8425L17.3795 17.3779" stroke="white" stroke-width="2" stroke-linecap="round" stroke-linejoin="round"/>
</mask>
<g mask="url(#mask0_464_27)">
<path d="M0 0H20V20H0V0Z" fill="white"/>
</g>
</svg>